<svg xmlns="http://www.w3.org/2000/svg" width="980" height="700" viewBox="0 0 980 700" role="img">
<rect x="0.0" y="0.0" width="980.0" height="700.0" fill="#f8f7f4" />
<rect x="40.0" y="40.0" width="900.0" height="620.0" fill="#ffffff" stroke="#e2e8f0" stroke-width="1" rx="18" ry="18" />
<text x="70.0" y="85.0" font-family="Arial, sans-serif" font-size="26" font-weight="700" fill="#1e293b" text-anchor="start">Dual-Shift Price Frontier</text>
<text x="70.0" y="110.0" font-family="Arial, sans-serif" font-size="15" font-weight="400" fill="#64748b" text-anchor="start">Headline-alpha pooled childcare surface: price rise vs fall under entry/capacity and cost-pressure shifts</text>
<text x="435.0" y="710.0" font-family="Arial, sans-serif" font-size="14" font-weight="400" fill="#64748b" text-anchor="middle">kappa_c (cost pressure)</text>
<text x="82.0" y="412.0" font-family="Arial, sans-serif" font-size="14" font-weight="400" fill="#64748b" text-anchor="middle">kappa_q (entry / capacity)</text>
<text x="215.0" y="146.0" font-family="Arial, sans-serif" font-size="12" font-weight="400" fill="#64748b" text-anchor="middle">0.00</text>
<line x1="160.0" y1="160.0" x2="160.0" y2="664.0" stroke="#e2e8f0" stroke-width="1" />
<text x="325.0" y="146.0" font-family="Arial, sans-serif" font-size="12" font-weight="400" fill="#64748b" text-anchor="middle">0.05</text>
<line x1="270.0" y1="160.0" x2="270.0" y2="664.0" stroke="#e2e8f0" stroke-width="1" />
<text x="435.0" y="146.0" font-family="Arial, sans-serif" font-size="12" font-weight="400" fill="#64748b" text-anchor="middle">0.10</text>
<line x1="380.0" y1="160.0" x2="380.0" y2="664.0" stroke="#e2e8f0" stroke-width="1" />
<text x="545.0" y="146.0" font-family="Arial, sans-serif" font-size="12" font-weight="400" fill="#64748b" text-anchor="middle">0.15</text>
<line x1="490.0" y1="160.0" x2="490.0" y2="664.0" stroke="#e2e8f0" stroke-width="1" />
<text x="655.0" y="146.0" font-family="Arial, sans-serif" font-size="12" font-weight="400" fill="#64748b" text-anchor="middle">0.20</text>
<line x1="600.0" y1="160.0" x2="600.0" y2="664.0" stroke="#e2e8f0" stroke-width="1" />
<line x1="710.0" y1="160.0" x2="710.0" y2="664.0" stroke="#e2e8f0" stroke-width="1" />
<text x="148.0" y="200.0" font-family="Arial, sans-serif" font-size="12" font-weight="400" fill="#64748b" text-anchor="end">0.00</text>
<line x1="160.0" y1="160.0" x2="710.0" y2="160.0" stroke="#e2e8f0" stroke-width="1" />
<text x="148.0" y="272.0" font-family="Arial, sans-serif" font-size="12" font-weight="400" fill="#64748b" text-anchor="end">0.25</text>
<line x1="160.0" y1="232.0" x2="710.0" y2="232.0" stroke="#e2e8f0" stroke-width="1" />
<text x="148.0" y="344.0" font-family="Arial, sans-serif" font-size="12" font-weight="400" fill="#64748b" text-anchor="end">0.50</text>
<line x1="160.0" y1="304.0" x2="710.0" y2="304.0" stroke="#e2e8f0" stroke-width="1" />
<text x="148.0" y="416.0" font-family="Arial, sans-serif" font-size="12" font-weight="400" fill="#64748b" text-anchor="end">0.75</text>
<line x1="160.0" y1="376.0" x2="710.0" y2="376.0" stroke="#e2e8f0" stroke-width="1" />
<text x="148.0" y="488.0" font-family="Arial, sans-serif" font-size="12" font-weight="400" fill="#64748b" text-anchor="end">1.00</text>
<line x1="160.0" y1="448.0" x2="710.0" y2="448.0" stroke="#e2e8f0" stroke-width="1" />
<text x="148.0" y="560.0" font-family="Arial, sans-serif" font-size="12" font-weight="400" fill="#64748b" text-anchor="end">1.25</text>
<line x1="160.0" y1="520.0" x2="710.0" y2="520.0" stroke="#e2e8f0" stroke-width="1" />
<text x="148.0" y="632.0" font-family="Arial, sans-serif" font-size="12" font-weight="400" fill="#64748b" text-anchor="end">1.50</text>
<line x1="160.0" y1="592.0" x2="710.0" y2="592.0" stroke="#e2e8f0" stroke-width="1" />
<line x1="160.0" y1="664.0" x2="710.0" y2="664.0" stroke="#e2e8f0" stroke-width="1" />
<rect x="163.0" y="163.0" width="104.0" height="66.0" fill="#f6c8b5" stroke="#e2e8f0" stroke-width="1" rx="10" ry="10" />
<text x="215.0" y="188.0" font-family="Arial, sans-serif" font-size="15" font-weight="700" fill="#1e293b" text-anchor="middle">+5.5%</text>
<text x="215.0" y="210.0" font-family="Arial, sans-serif" font-size="12" font-weight="400" fill="#64748b" text-anchor="middle">8,727</text>
<rect x="273.0" y="163.0" width="104.0" height="66.0" fill="#f6c8b5" stroke="#e2e8f0" stroke-width="1" rx="10" ry="10" />
<text x="325.0" y="188.0" font-family="Arial, sans-serif" font-size="15" font-weight="700" fill="#1e293b" text-anchor="middle">+8.1%</text>
<text x="325.0" y="210.0" font-family="Arial, sans-serif" font-size="12" font-weight="400" fill="#64748b" text-anchor="middle">8,942</text>
<rect x="383.0" y="163.0" width="104.0" height="66.0" fill="#f6c8b5" stroke="#e2e8f0" stroke-width="1" rx="10" ry="10" />
<text x="435.0" y="188.0" font-family="Arial, sans-serif" font-size="15" font-weight="700" fill="#1e293b" text-anchor="middle">+10.8%</text>
<text x="435.0" y="210.0" font-family="Arial, sans-serif" font-size="12" font-weight="400" fill="#64748b" text-anchor="middle">9,163</text>
<rect x="493.0" y="163.0" width="104.0" height="66.0" fill="#f6c8b5" stroke="#e2e8f0" stroke-width="1" rx="10" ry="10" />
<text x="545.0" y="188.0" font-family="Arial, sans-serif" font-size="15" font-weight="700" fill="#1e293b" text-anchor="middle">+13.5%</text>
<text x="545.0" y="210.0" font-family="Arial, sans-serif" font-size="12" font-weight="400" fill="#64748b" text-anchor="middle">9,390</text>
<rect x="603.0" y="163.0" width="104.0" height="66.0" fill="#f6c8b5" stroke="#e2e8f0" stroke-width="1" rx="10" ry="10" />
<text x="655.0" y="188.0" font-family="Arial, sans-serif" font-size="15" font-weight="700" fill="#1e293b" text-anchor="middle">+16.3%</text>
<text x="655.0" y="210.0" font-family="Arial, sans-serif" font-size="12" font-weight="400" fill="#64748b" text-anchor="middle">9,622</text>
<rect x="163.0" y="235.0" width="104.0" height="66.0" fill="#f6c8b5" stroke="#e2e8f0" stroke-width="1" rx="10" ry="10" />
<text x="215.0" y="260.0" font-family="Arial, sans-serif" font-size="15" font-weight="700" fill="#1e293b" text-anchor="middle">+2.4%</text>
<text x="215.0" y="282.0" font-family="Arial, sans-serif" font-size="12" font-weight="400" fill="#64748b" text-anchor="middle">8,469</text>
<rect x="273.0" y="235.0" width="104.0" height="66.0" fill="#f6c8b5" stroke="#e2e8f0" stroke-width="1" rx="10" ry="10" />
<text x="325.0" y="260.0" font-family="Arial, sans-serif" font-size="15" font-weight="700" fill="#1e293b" text-anchor="middle">+4.9%</text>
<text x="325.0" y="282.0" font-family="Arial, sans-serif" font-size="12" font-weight="400" fill="#64748b" text-anchor="middle">8,679</text>
<rect x="383.0" y="235.0" width="104.0" height="66.0" fill="#f6c8b5" stroke="#e2e8f0" stroke-width="1" rx="10" ry="10" />
<text x="435.0" y="260.0" font-family="Arial, sans-serif" font-size="15" font-weight="700" fill="#1e293b" text-anchor="middle">+7.5%</text>
<text x="435.0" y="282.0" font-family="Arial, sans-serif" font-size="12" font-weight="400" fill="#64748b" text-anchor="middle">8,893</text>
<rect x="493.0" y="235.0" width="104.0" height="66.0" fill="#f6c8b5" stroke="#e2e8f0" stroke-width="1" rx="10" ry="10" />
<text x="545.0" y="260.0" font-family="Arial, sans-serif" font-size="15" font-weight="700" fill="#1e293b" text-anchor="middle">+10.2%</text>
<text x="545.0" y="282.0" font-family="Arial, sans-serif" font-size="12" font-weight="400" fill="#64748b" text-anchor="middle">9,113</text>
<rect x="603.0" y="235.0" width="104.0" height="66.0" fill="#f6c8b5" stroke="#e2e8f0" stroke-width="1" rx="10" ry="10" />
<text x="655.0" y="260.0" font-family="Arial, sans-serif" font-size="15" font-weight="700" fill="#1e293b" text-anchor="middle">+12.9%</text>
<text x="655.0" y="282.0" font-family="Arial, sans-serif" font-size="12" font-weight="400" fill="#64748b" text-anchor="middle">9,338</text>
<rect x="163.0" y="307.0" width="104.0" height="66.0" fill="#bce4de" stroke="#e2e8f0" stroke-width="1" rx="10" ry="10" />
<text x="215.0" y="332.0" font-family="Arial, sans-serif" font-size="15" font-weight="700" fill="#1e293b" text-anchor="middle">-0.6%</text>
<text x="215.0" y="354.0" font-family="Arial, sans-serif" font-size="12" font-weight="400" fill="#64748b" text-anchor="middle">8,220</text>
<rect x="273.0" y="307.0" width="104.0" height="66.0" fill="#f6c8b5" stroke="#e2e8f0" stroke-width="1" rx="10" ry="10" />
<text x="325.0" y="332.0" font-family="Arial, sans-serif" font-size="15" font-weight="700" fill="#1e293b" text-anchor="middle">+1.8%</text>
<text x="325.0" y="354.0" font-family="Arial, sans-serif" font-size="12" font-weight="400" fill="#64748b" text-anchor="middle">8,423</text>
<rect x="383.0" y="307.0" width="104.0" height="66.0" fill="#f6c8b5" stroke="#e2e8f0" stroke-width="1" rx="10" ry="10" />
<text x="435.0" y="332.0" font-family="Arial, sans-serif" font-size="15" font-weight="700" fill="#1e293b" text-anchor="middle">+4.3%</text>
<text x="435.0" y="354.0" font-family="Arial, sans-serif" font-size="12" font-weight="400" fill="#64748b" text-anchor="middle">8,631</text>
<rect x="493.0" y="307.0" width="104.0" height="66.0" fill="#f6c8b5" stroke="#e2e8f0" stroke-width="1" rx="10" ry="10" />
<text x="545.0" y="332.0" font-family="Arial, sans-serif" font-size="15" font-weight="700" fill="#1e293b" text-anchor="middle">+6.9%</text>
<text x="545.0" y="354.0" font-family="Arial, sans-serif" font-size="12" font-weight="400" fill="#64748b" text-anchor="middle">8,844</text>
<rect x="603.0" y="307.0" width="104.0" height="66.0" fill="#f6c8b5" stroke="#e2e8f0" stroke-width="1" rx="10" ry="10" />
<text x="655.0" y="332.0" font-family="Arial, sans-serif" font-size="15" font-weight="700" fill="#1e293b" text-anchor="middle">+9.6%</text>
<text x="655.0" y="354.0" font-family="Arial, sans-serif" font-size="12" font-weight="400" fill="#64748b" text-anchor="middle">9,063</text>
<rect x="163.0" y="379.0" width="104.0" height="66.0" fill="#bce4de" stroke="#e2e8f0" stroke-width="1" rx="10" ry="10" />
<text x="215.0" y="404.0" font-family="Arial, sans-serif" font-size="15" font-weight="700" fill="#1e293b" text-anchor="middle">-3.6%</text>
<text x="215.0" y="426.0" font-family="Arial, sans-serif" font-size="12" font-weight="400" fill="#64748b" text-anchor="middle">7,977</text>
<rect x="273.0" y="379.0" width="104.0" height="66.0" fill="#bce4de" stroke="#e2e8f0" stroke-width="1" rx="10" ry="10" />
<text x="325.0" y="404.0" font-family="Arial, sans-serif" font-size="15" font-weight="700" fill="#1e293b" text-anchor="middle">-1.2%</text>
<text x="325.0" y="426.0" font-family="Arial, sans-serif" font-size="12" font-weight="400" fill="#64748b" text-anchor="middle">8,174</text>
<rect x="383.0" y="379.0" width="104.0" height="66.0" fill="#f6c8b5" stroke="#e2e8f0" stroke-width="1" rx="10" ry="10" />
<text x="435.0" y="404.0" font-family="Arial, sans-serif" font-size="15" font-weight="700" fill="#1e293b" text-anchor="middle">+1.3%</text>
<text x="435.0" y="426.0" font-family="Arial, sans-serif" font-size="12" font-weight="400" fill="#64748b" text-anchor="middle">8,376</text>
<rect x="493.0" y="379.0" width="104.0" height="66.0" fill="#f6c8b5" stroke="#e2e8f0" stroke-width="1" rx="10" ry="10" />
<text x="545.0" y="404.0" font-family="Arial, sans-serif" font-size="15" font-weight="700" fill="#1e293b" text-anchor="middle">+3.8%</text>
<text x="545.0" y="426.0" font-family="Arial, sans-serif" font-size="12" font-weight="400" fill="#64748b" text-anchor="middle">8,583</text>
<rect x="603.0" y="379.0" width="104.0" height="66.0" fill="#f6c8b5" stroke="#e2e8f0" stroke-width="1" rx="10" ry="10" />
<text x="655.0" y="404.0" font-family="Arial, sans-serif" font-size="15" font-weight="700" fill="#1e293b" text-anchor="middle">+6.3%</text>
<text x="655.0" y="426.0" font-family="Arial, sans-serif" font-size="12" font-weight="400" fill="#64748b" text-anchor="middle">8,795</text>
<rect x="163.0" y="451.0" width="104.0" height="66.0" fill="#bce4de" stroke="#e2e8f0" stroke-width="1" rx="10" ry="10" />
<text x="215.0" y="476.0" font-family="Arial, sans-serif" font-size="15" font-weight="700" fill="#1e293b" text-anchor="middle">-6.4%</text>
<text x="215.0" y="498.0" font-family="Arial, sans-serif" font-size="12" font-weight="400" fill="#64748b" text-anchor="middle">7,742</text>
<rect x="273.0" y="451.0" width="104.0" height="66.0" fill="#bce4de" stroke="#e2e8f0" stroke-width="1" rx="10" ry="10" />
<text x="325.0" y="476.0" font-family="Arial, sans-serif" font-size="15" font-weight="700" fill="#1e293b" text-anchor="middle">-4.1%</text>
<text x="325.0" y="498.0" font-family="Arial, sans-serif" font-size="12" font-weight="400" fill="#64748b" text-anchor="middle">7,933</text>
<rect x="383.0" y="451.0" width="104.0" height="66.0" fill="#bce4de" stroke="#e2e8f0" stroke-width="1" rx="10" ry="10" />
<text x="435.0" y="476.0" font-family="Arial, sans-serif" font-size="15" font-weight="700" fill="#1e293b" text-anchor="middle">-1.7%</text>
<text x="435.0" y="498.0" font-family="Arial, sans-serif" font-size="12" font-weight="400" fill="#64748b" text-anchor="middle">8,129</text>
<rect x="493.0" y="451.0" width="104.0" height="66.0" fill="#f6c8b5" stroke="#e2e8f0" stroke-width="1" rx="10" ry="10" />
<text x="545.0" y="476.0" font-family="Arial, sans-serif" font-size="15" font-weight="700" fill="#1e293b" text-anchor="middle">+0.7%</text>
<text x="545.0" y="498.0" font-family="Arial, sans-serif" font-size="12" font-weight="400" fill="#64748b" text-anchor="middle">8,330</text>
<rect x="603.0" y="451.0" width="104.0" height="66.0" fill="#f6c8b5" stroke="#e2e8f0" stroke-width="1" rx="10" ry="10" />
<text x="655.0" y="476.0" font-family="Arial, sans-serif" font-size="15" font-weight="700" fill="#1e293b" text-anchor="middle">+3.2%</text>
<text x="655.0" y="498.0" font-family="Arial, sans-serif" font-size="12" font-weight="400" fill="#64748b" text-anchor="middle">8,536</text>
<rect x="163.0" y="523.0" width="104.0" height="66.0" fill="#bce4de" stroke="#e2e8f0" stroke-width="1" rx="10" ry="10" />
<text x="215.0" y="548.0" font-family="Arial, sans-serif" font-size="15" font-weight="700" fill="#1e293b" text-anchor="middle">-9.2%</text>
<text x="215.0" y="570.0" font-family="Arial, sans-serif" font-size="12" font-weight="400" fill="#64748b" text-anchor="middle">7,514</text>
<rect x="273.0" y="523.0" width="104.0" height="66.0" fill="#bce4de" stroke="#e2e8f0" stroke-width="1" rx="10" ry="10" />
<text x="325.0" y="548.0" font-family="Arial, sans-serif" font-size="15" font-weight="700" fill="#1e293b" text-anchor="middle">-6.9%</text>
<text x="325.0" y="570.0" font-family="Arial, sans-serif" font-size="12" font-weight="400" fill="#64748b" text-anchor="middle">7,699</text>
<rect x="383.0" y="523.0" width="104.0" height="66.0" fill="#bce4de" stroke="#e2e8f0" stroke-width="1" rx="10" ry="10" />
<text x="435.0" y="548.0" font-family="Arial, sans-serif" font-size="15" font-weight="700" fill="#1e293b" text-anchor="middle">-4.6%</text>
<text x="435.0" y="570.0" font-family="Arial, sans-serif" font-size="12" font-weight="400" fill="#64748b" text-anchor="middle">7,890</text>
<rect x="493.0" y="523.0" width="104.0" height="66.0" fill="#bce4de" stroke="#e2e8f0" stroke-width="1" rx="10" ry="10" />
<text x="545.0" y="548.0" font-family="Arial, sans-serif" font-size="15" font-weight="700" fill="#1e293b" text-anchor="middle">-2.3%</text>
<text x="545.0" y="570.0" font-family="Arial, sans-serif" font-size="12" font-weight="400" fill="#64748b" text-anchor="middle">8,085</text>
<rect x="603.0" y="523.0" width="104.0" height="66.0" fill="#f6c8b5" stroke="#e2e8f0" stroke-width="1" rx="10" ry="10" />
<text x="655.0" y="548.0" font-family="Arial, sans-serif" font-size="15" font-weight="700" fill="#1e293b" text-anchor="middle">+0.2%</text>
<text x="655.0" y="570.0" font-family="Arial, sans-serif" font-size="12" font-weight="400" fill="#64748b" text-anchor="middle">8,284</text>
<rect x="163.0" y="595.0" width="104.0" height="66.0" fill="#bce4de" stroke="#e2e8f0" stroke-width="1" rx="10" ry="10" />
<text x="215.0" y="620.0" font-family="Arial, sans-serif" font-size="15" font-weight="700" fill="#1e293b" text-anchor="middle">-11.8%</text>
<text x="215.0" y="642.0" font-family="Arial, sans-serif" font-size="12" font-weight="400" fill="#64748b" text-anchor="middle">7,292</text>
<rect x="273.0" y="595.0" width="104.0" height="66.0" fill="#bce4de" stroke="#e2e8f0" stroke-width="1" rx="10" ry="10" />
<text x="325.0" y="620.0" font-family="Arial, sans-serif" font-size="15" font-weight="700" fill="#1e293b" text-anchor="middle">-9.7%</text>
<text x="325.0" y="642.0" font-family="Arial, sans-serif" font-size="12" font-weight="400" fill="#64748b" text-anchor="middle">7,472</text>
<rect x="383.0" y="595.0" width="104.0" height="66.0" fill="#bce4de" stroke="#e2e8f0" stroke-width="1" rx="10" ry="10" />
<text x="435.0" y="620.0" font-family="Arial, sans-serif" font-size="15" font-weight="700" fill="#1e293b" text-anchor="middle">-7.4%</text>
<text x="435.0" y="642.0" font-family="Arial, sans-serif" font-size="12" font-weight="400" fill="#64748b" text-anchor="middle">7,657</text>
<rect x="493.0" y="595.0" width="104.0" height="66.0" fill="#bce4de" stroke="#e2e8f0" stroke-width="1" rx="10" ry="10" />
<text x="545.0" y="620.0" font-family="Arial, sans-serif" font-size="15" font-weight="700" fill="#1e293b" text-anchor="middle">-5.1%</text>
<text x="545.0" y="642.0" font-family="Arial, sans-serif" font-size="12" font-weight="400" fill="#64748b" text-anchor="middle">7,846</text>
<rect x="603.0" y="595.0" width="104.0" height="66.0" fill="#bce4de" stroke="#e2e8f0" stroke-width="1" rx="10" ry="10" />
<text x="655.0" y="620.0" font-family="Arial, sans-serif" font-size="15" font-weight="700" fill="#1e293b" text-anchor="middle">-2.8%</text>
<text x="655.0" y="642.0" font-family="Arial, sans-serif" font-size="12" font-weight="400" fill="#64748b" text-anchor="middle">8,040</text>
<polyline points="215.0,483.7 325.0,425.0 435.0,366.3 545.0,307.6 655.0,248.8" fill="none" stroke="#3b82f6" stroke-width="4" stroke-linecap="round" stroke-linejoin="round" />
<rect x="439.0" y="339.3" width="265.6" height="23.0" fill="#ffffff" stroke="#3b82f6" stroke-width="1" rx="11.5" ry="11.5" />
<text x="447.0" y="356.3" font-family="Arial, sans-serif" font-size="13" font-weight="600" fill="#3b82f6" text-anchor="start">Zero-price-change frontier (p50)</text>
<rect x="160.0" y="742.0" width="24.0" height="18.0" fill="#bce4de" stroke="#e2e8f0" stroke-width="1" rx="5" ry="5" />
<text x="194.0" y="756.0" font-family="Arial, sans-serif" font-size="12" font-weight="400" fill="#64748b" text-anchor="start">price falls</text>
<rect x="350.0" y="742.0" width="24.0" height="18.0" fill="#f4e7be" stroke="#e2e8f0" stroke-width="1" rx="5" ry="5" />
<text x="384.0" y="756.0" font-family="Arial, sans-serif" font-size="12" font-weight="400" fill="#64748b" text-anchor="start">near zero</text>
<rect x="540.0" y="742.0" width="24.0" height="18.0" fill="#f6c8b5" stroke="#e2e8f0" stroke-width="1" rx="5" ry="5" />
<text x="574.0" y="756.0" font-family="Arial, sans-serif" font-size="12" font-weight="400" fill="#64748b" text-anchor="start">price rises</text>
<text x="160.0" y="790.0" font-family="Arial, sans-serif" font-size="12" font-weight="400" fill="#64748b" text-anchor="start">Headline alpha = 0.50; cell labels show median pct change vs baseline and median price.</text>
<text x="160.0" y="810.0" font-family="Arial, sans-serif" font-size="12" font-weight="400" fill="#64748b" text-anchor="start">Short-run benchmark remains canonical; this figure visualizes the additive medium-run dual-shift sensitivity only.</text>
</svg>