<svg xmlns="http://www.w3.org/2000/svg" width="980" height="530" viewBox="0 0 980 530" role="img">
<rect x="0.0" y="0.0" width="980.0" height="530.0" fill="#f8f7f4" />
<rect x="40.0" y="40.0" width="900.0" height="450.0" fill="#ffffff" stroke="#e2e8f0" stroke-width="1" rx="18" ry="18" />
<text x="70.0" y="85.0" font-family="Arial, sans-serif" font-size="26" font-weight="700" fill="#1e293b" text-anchor="start">Supply IV Pilot</text>
<text x="70.0" y="110.0" font-family="Arial, sans-serif" font-size="14" font-weight="400" fill="#64748b" text-anchor="start">Licensing-shock exposure design: reduced-form responses (4 states, 824 obs)</text>
<rect x="50.0" y="118.0" width="455.0" height="300.0" fill="#f8f7f4" stroke="#e2e8f0" stroke-width="1" rx="16" ry="16" />
<text x="95.0" y="144.0" font-family="Arial, sans-serif" font-size="16" font-weight="700" fill="#1e293b" text-anchor="start">Licensing shock timeline</text>
<line x1="95.0" y1="158.0" x2="95.0" y2="358.0" stroke="#1e293b" stroke-width="2" />
<line x1="95.0" y1="358.0" x2="465.0" y2="358.0" stroke="#1e293b" stroke-width="2" />
<line x1="91.0" y1="358.0" x2="95.0" y2="358.0" stroke="#1e293b" stroke-width="1" />
<text x="87.0" y="362.0" font-family="Arial, sans-serif" font-size="10" font-weight="400" fill="#64748b" text-anchor="end">0.088</text>
<line x1="91.0" y1="308.0" x2="95.0" y2="308.0" stroke="#1e293b" stroke-width="1" />
<line x1="95.0" y1="308.0" x2="465.0" y2="308.0" stroke="#e2e8f0" stroke-width="1" />
<text x="87.0" y="312.0" font-family="Arial, sans-serif" font-size="10" font-weight="400" fill="#64748b" text-anchor="end">0.106</text>
<line x1="91.0" y1="258.0" x2="95.0" y2="258.0" stroke="#1e293b" stroke-width="1" />
<line x1="95.0" y1="258.0" x2="465.0" y2="258.0" stroke="#e2e8f0" stroke-width="1" />
<text x="87.0" y="262.0" font-family="Arial, sans-serif" font-size="10" font-weight="400" fill="#64748b" text-anchor="end">0.123</text>
<line x1="91.0" y1="208.0" x2="95.0" y2="208.0" stroke="#1e293b" stroke-width="1" />
<line x1="95.0" y1="208.0" x2="465.0" y2="208.0" stroke="#e2e8f0" stroke-width="1" />
<text x="87.0" y="212.0" font-family="Arial, sans-serif" font-size="10" font-weight="400" fill="#64748b" text-anchor="end">0.141</text>
<line x1="91.0" y1="158.0" x2="95.0" y2="158.0" stroke="#1e293b" stroke-width="1" />
<line x1="95.0" y1="158.0" x2="465.0" y2="158.0" stroke="#e2e8f0" stroke-width="1" />
<text x="87.0" y="162.0" font-family="Arial, sans-serif" font-size="10" font-weight="400" fill="#64748b" text-anchor="end">0.159</text>
<text x="58" y="258.0" font-family="Arial, sans-serif" font-size="11" font-weight="400" fill="#64748b" text-anchor="middle" transform="rotate(-90, 58, 258.0)">Labor intensity index</text>
<text x="95.0" y="376.0" font-family="Arial, sans-serif" font-size="11" font-weight="400" fill="#64748b" text-anchor="middle">2017</text>
<line x1="169.0" y1="158.0" x2="169.0" y2="358.0" stroke="#e2e8f0" stroke-width="1" />
<text x="169.0" y="376.0" font-family="Arial, sans-serif" font-size="11" font-weight="400" fill="#64748b" text-anchor="middle">2018</text>
<line x1="243.0" y1="158.0" x2="243.0" y2="358.0" stroke="#e2e8f0" stroke-width="1" />
<text x="243.0" y="376.0" font-family="Arial, sans-serif" font-size="11" font-weight="400" fill="#64748b" text-anchor="middle">2019</text>
<line x1="317.0" y1="158.0" x2="317.0" y2="358.0" stroke="#e2e8f0" stroke-width="1" />
<text x="317.0" y="376.0" font-family="Arial, sans-serif" font-size="11" font-weight="400" fill="#64748b" text-anchor="middle">2020</text>
<line x1="391.0" y1="158.0" x2="391.0" y2="358.0" stroke="#e2e8f0" stroke-width="1" />
<text x="391.0" y="376.0" font-family="Arial, sans-serif" font-size="11" font-weight="400" fill="#64748b" text-anchor="middle">2021</text>
<line x1="465.0" y1="158.0" x2="465.0" y2="358.0" stroke="#e2e8f0" stroke-width="1" />
<text x="465.0" y="376.0" font-family="Arial, sans-serif" font-size="11" font-weight="400" fill="#64748b" text-anchor="middle">2022</text>
<path d="M 95.0,195.5 C 119.7,216.3 206.0,299.7 243.0,320.5 C 280.0,341.3 280.0,320.5 317.0,320.5 C 354.0,320.5 440.3,320.5 465.0,320.5" fill="none" stroke="#0d9488" stroke-width="3" stroke-linecap="round" stroke-linejoin="round" />
<circle cx="95.0" cy="195.5" r="6.0" fill="#0d9488" stroke="#ffffff" stroke-width="2" />
<circle cx="243.0" cy="320.5" r="6.0" fill="#d97706" stroke="#ffffff" stroke-width="2" />
<circle cx="317.0" cy="320.5" r="6.0" fill="#d97706" stroke="#ffffff" stroke-width="2" />
<circle cx="465.0" cy="320.5" r="6.0" fill="#d97706" stroke="#ffffff" stroke-width="2" />
<line x1="206.0" y1="158.0" x2="206.0" y2="358.0" stroke="#d97706" stroke-width="2" stroke-dasharray="6 4" />
<rect x="178.2" y="325.0" width="55.6" height="21.0" fill="#ffffff" stroke="#d97706" stroke-width="1" rx="10.5" ry="10.5" />
<text x="206.0" y="340.0" font-family="Arial, sans-serif" font-size="11" font-weight="600" fill="#d97706" text-anchor="middle">reform</text>
<text x="95.0" y="398.0" font-family="Arial, sans-serif" font-size="11" font-weight="400" fill="#64748b" text-anchor="start">Index tracks regulatory labor requirements for subsidy-approved centers.</text>
<rect x="540.0" y="118.0" width="380.0" height="68.0" fill="#f8f7f4" stroke="#e2e8f0" stroke-width="1" rx="12" ry="12" />
<text x="556.0" y="140.0" font-family="Arial, sans-serif" font-size="13" font-weight="700" fill="#1e293b" text-anchor="start">First-stage: price</text>
<text x="904.0" y="140.0" font-family="Arial, sans-serif" font-size="11" font-weight="400" fill="#64748b" text-anchor="end">Shock → log price</text>
<text x="556.0" y="168.0" font-family="Arial, sans-serif" font-size="20" font-weight="700" fill="#0d9488" text-anchor="start">β = 1.781</text>
<text x="904.0" y="168.0" font-family="Arial, sans-serif" font-size="13" font-weight="400" fill="#64748b" text-anchor="end">R² = 0.0066</text>
<rect x="540.0" y="196.0" width="380.0" height="68.0" fill="#f8f7f4" stroke="#e2e8f0" stroke-width="1" rx="12" ry="12" />
<text x="556.0" y="218.0" font-family="Arial, sans-serif" font-size="13" font-weight="700" fill="#1e293b" text-anchor="start">Reduced form: providers</text>
<text x="904.0" y="218.0" font-family="Arial, sans-serif" font-size="11" font-weight="400" fill="#64748b" text-anchor="end">Shock → log density</text>
<text x="556.0" y="246.0" font-family="Arial, sans-serif" font-size="20" font-weight="700" fill="#3b82f6" text-anchor="start">β = 40.031</text>
<text x="904.0" y="246.0" font-family="Arial, sans-serif" font-size="13" font-weight="400" fill="#64748b" text-anchor="end">R² = 0.0054</text>
<rect x="540.0" y="274.0" width="380.0" height="68.0" fill="#f8f7f4" stroke="#e2e8f0" stroke-width="1" rx="12" ry="12" />
<text x="556.0" y="296.0" font-family="Arial, sans-serif" font-size="13" font-weight="700" fill="#1e293b" text-anchor="start">Reduced form: employers</text>
<text x="904.0" y="296.0" font-family="Arial, sans-serif" font-size="11" font-weight="400" fill="#64748b" text-anchor="end">Shock → log estab.</text>
<text x="556.0" y="324.0" font-family="Arial, sans-serif" font-size="20" font-weight="700" fill="#94a3b8" text-anchor="start">β = 0.000</text>
<rect x="540.0" y="352.0" width="380.0" height="100.0" fill="#f8f7f4" stroke="#e2e8f0" stroke-width="1" rx="12" ry="12" />
<text x="556.0" y="376.0" font-family="Arial, sans-serif" font-size="14" font-weight="700" fill="#1e293b" text-anchor="start">Pilot diagnostics</text>
<text x="556.0" y="400.0" font-family="Arial, sans-serif" font-size="13" font-weight="400" fill="#1e293b" text-anchor="start">Local IV elasticity (provider): 22.477</text>
<text x="556.0" y="420.0" font-family="Arial, sans-serif" font-size="12" font-weight="400" fill="#64748b" text-anchor="start">Obs: 824  ·  Counties: 206  ·  States: 4</text>
<text x="556.0" y="440.0" font-family="Arial, sans-serif" font-size="13" font-weight="400" fill="#0d9488" text-anchor="start">First-stage strength: strong</text>
<text x="70.0" y="492.0" font-family="Arial, sans-serif" font-size="12" font-weight="400" fill="#64748b" text-anchor="start">Methodology demo: 3-state regulatory-shock design, not a structural supply curve estimate.</text>
</svg>