<svg xmlns="http://www.w3.org/2000/svg" width="980" height="620" viewBox="0 0 980 620" role="img">
<rect x="0.0" y="0.0" width="980.0" height="620.0" fill="#f8f7f4" />
<rect x="40.0" y="40.0" width="900.0" height="540.0" fill="#ffffff" stroke="#e2e8f0" stroke-width="1" rx="18" ry="18" />
<text x="70.0" y="85.0" font-family="Arial, sans-serif" font-size="26" font-weight="700" fill="#1e293b" text-anchor="start">Piecewise Supply Demo</text>
<text x="70.0" y="110.0" font-family="Arial, sans-serif" font-size="15" font-weight="400" fill="#64748b" text-anchor="start">Constant vs one-kink supply curve on the high-labor-support observed-core subset</text>
<line x1="120.0" y1="480.0" x2="610.0" y2="480.0" stroke="#1e293b" stroke-width="2" />
<line x1="120.0" y1="130.0" x2="120.0" y2="480.0" stroke="#1e293b" stroke-width="2" />
<text x="52.0" y="305.0" font-family="Arial, sans-serif" font-size="14" font-weight="400" fill="#64748b" text-anchor="middle">Price</text>
<line x1="120.0" y1="130.0" x2="120.0" y2="480.0" stroke="#e2e8f0" stroke-width="1" />
<text x="120.0" y="498.0" font-family="Arial, sans-serif" font-size="11" font-weight="400" fill="#64748b" text-anchor="middle">0.00M</text>
<line x1="242.5" y1="130.0" x2="242.5" y2="480.0" stroke="#e2e8f0" stroke-width="1" />
<text x="242.5" y="498.0" font-family="Arial, sans-serif" font-size="11" font-weight="400" fill="#64748b" text-anchor="middle">10.96M</text>
<line x1="365.0" y1="130.0" x2="365.0" y2="480.0" stroke="#e2e8f0" stroke-width="1" />
<text x="365.0" y="498.0" font-family="Arial, sans-serif" font-size="11" font-weight="400" fill="#64748b" text-anchor="middle">21.92M</text>
<line x1="487.5" y1="130.0" x2="487.5" y2="480.0" stroke="#e2e8f0" stroke-width="1" />
<text x="487.5" y="498.0" font-family="Arial, sans-serif" font-size="11" font-weight="400" fill="#64748b" text-anchor="middle">32.88M</text>
<line x1="610.0" y1="130.0" x2="610.0" y2="480.0" stroke="#e2e8f0" stroke-width="1" />
<text x="610.0" y="498.0" font-family="Arial, sans-serif" font-size="11" font-weight="400" fill="#64748b" text-anchor="middle">43.84M</text>
<line x1="120.0" y1="480.0" x2="610.0" y2="480.0" stroke="#e2e8f0" stroke-width="1" />
<text x="108.0" y="484.0" font-family="Arial, sans-serif" font-size="11" font-weight="400" fill="#64748b" text-anchor="end">6,147</text>
<line x1="120.0" y1="392.5" x2="610.0" y2="392.5" stroke="#e2e8f0" stroke-width="1" />
<text x="108.0" y="396.5" font-family="Arial, sans-serif" font-size="11" font-weight="400" fill="#64748b" text-anchor="end">7,788</text>
<line x1="120.0" y1="305.0" x2="610.0" y2="305.0" stroke="#e2e8f0" stroke-width="1" />
<text x="108.0" y="309.0" font-family="Arial, sans-serif" font-size="11" font-weight="400" fill="#64748b" text-anchor="end">9,428</text>
<line x1="120.0" y1="217.5" x2="610.0" y2="217.5" stroke="#e2e8f0" stroke-width="1" />
<text x="108.0" y="221.5" font-family="Arial, sans-serif" font-size="11" font-weight="400" fill="#64748b" text-anchor="end">11,069</text>
<line x1="120.0" y1="130.0" x2="610.0" y2="130.0" stroke="#e2e8f0" stroke-width="1" />
<text x="108.0" y="134.0" font-family="Arial, sans-serif" font-size="11" font-weight="400" fill="#64748b" text-anchor="end">12,710</text>
<text x="365.0" y="518.0" font-family="Arial, sans-serif" font-size="14" font-weight="400" fill="#64748b" text-anchor="middle">Quantity of paid childcare</text>
<polyline points="160.6,455.9 163.5,449.6 166.5,443.3 169.7,437.0 173.1,430.7 176.6,424.4 180.4,418.1 184.2,411.9 188.3,405.6 192.6,399.3 197.0,393.0 201.7,386.7 206.6,380.4 211.7,374.1 217.0,367.9 222.5,361.6 228.2,355.3 234.2,349.0 240.5,342.7 247.0,336.4 253.7,330.1 260.7,323.9 268.0,317.6 275.5,311.3 283.4,305.0 291.5,298.7 299.9,292.4 308.6,286.1 317.7,279.9 327.0,273.6 336.7,267.3 346.7,261.0 357.0,254.7 367.7,248.4 378.8,242.1 390.2,235.9 402.0,229.6 414.2,223.3 426.7,217.0 439.7,210.7 453.0,204.4 466.8,198.1 480.9,191.9 495.5,185.6 510.6,179.3 526.1,173.0 542.0,166.7 558.4,160.4 575.2,154.1" fill="none" stroke="#94a3b8" stroke-width="4" stroke-linecap="round" stroke-linejoin="round" />
<polyline points="140.8,455.9 143.1,449.6 145.5,443.3 148.1,437.0 151.0,430.7 154.1,424.4 157.5,418.1 161.1,411.9 165.0,405.6 169.2,399.3 173.8,393.0 178.6,386.7 183.9,380.4 189.5,374.1 195.5,367.9 202.0,361.6 208.9,355.3 216.3,349.0 224.1,342.7 232.5,336.4 241.5,330.1 251.0,323.9 261.1,317.6 271.9,311.3 283.4,305.0 288.7,298.7 294.2,292.4 299.7,286.1 305.4,279.9 311.2,273.6 317.1,267.3 323.1,261.0 329.2,254.7 335.4,248.4 341.8,242.1 348.2,235.9 354.8,229.6 361.5,223.3 368.3,217.0 375.2,210.7 382.2,204.4 389.3,198.1 396.6,191.9 404.0,185.6 411.5,179.3 419.1,173.0 426.9,166.7 434.7,160.4 442.7,154.1" fill="none" stroke="#0d9488" stroke-width="4" stroke-linecap="round" stroke-linejoin="round" />
<circle cx="283.4" cy="305.0" r="6.0" fill="#ffffff" stroke="#1e293b" stroke-width="2" />
<line x1="283.4" y1="305.0" x2="283.4" y2="480.0" stroke="#94a3b8" stroke-width="1.5" stroke-dasharray="6 6" />
<line x1="120.0" y1="305.0" x2="283.4" y2="305.0" stroke="#94a3b8" stroke-width="1.5" stroke-dasharray="6 6" />
<rect x="354.2" y="212.9" width="86.2" height="23.0" fill="#ffffff" stroke="#0d9488" stroke-width="1" rx="11.5" ry="11.5" />
<text x="362.2" y="229.9" font-family="Arial, sans-serif" font-size="13" font-weight="600" fill="#0d9488" text-anchor="start">Piecewise</text>
<rect x="396.2" y="236.9" width="78.4" height="23.0" fill="#ffffff" stroke="#94a3b8" stroke-width="1" rx="11.5" ry="11.5" />
<text x="404.2" y="253.9" font-family="Arial, sans-serif" font-size="13" font-weight="600" fill="#94a3b8" text-anchor="start">Constant</text>
<rect x="199.0" y="270.0" width="78.4" height="23.0" fill="#ffffff" stroke="#e2e8f0" stroke-width="1" rx="11.5" ry="11.5" />
<text x="269.4" y="287.0" font-family="Arial, sans-serif" font-size="13" font-weight="600" fill="#1e293b" text-anchor="end">Baseline</text>
<rect x="660.0" y="136.0" width="230.0" height="160.0" fill="#ffffff" stroke="#e2e8f0" stroke-width="1" rx="12" ry="12" />
<text x="676.0" y="160.0" font-family="Arial, sans-serif" font-size="13" font-weight="700" fill="#1e293b" text-anchor="start">Demo subset</text>
<text x="676.0" y="184.0" font-family="Arial, sans-serif" font-size="12" font-weight="400" fill="#64748b" text-anchor="start">107 state-years · 17 states</text>
<text x="676.0" y="212.0" font-family="Arial, sans-serif" font-size="12" font-weight="400" fill="#0d9488" text-anchor="start">η below = 5.776</text>
<text x="676.0" y="232.0" font-family="Arial, sans-serif" font-size="12" font-weight="400" fill="#0d9488" text-anchor="start">η above = 2.595</text>
<text x="676.0" y="252.0" font-family="Arial, sans-serif" font-size="12" font-weight="400" fill="#94a3b8" text-anchor="start">η constant = 3.906</text>
<text x="676.0" y="276.0" font-family="Arial, sans-serif" font-size="11" font-weight="400" fill="#64748b" text-anchor="start">Fallback on either side: 86.5%</text>
<rect x="660.0" y="320.0" width="230.0" height="86.0" fill="#ffffff" stroke="#e2e8f0" stroke-width="1" rx="12" ry="12" />
<text x="676.0" y="344.0" font-family="Arial, sans-serif" font-size="13" font-weight="700" fill="#1e293b" text-anchor="start">Price effect vs constant (median)</text>
<text x="676.0" y="370.0" font-family="Arial, sans-serif" font-size="12" font-weight="400" fill="#1e293b" text-anchor="start">α = 0.50</text>
<text x="810.0" y="370.0" font-family="Arial, sans-serif" font-size="12" font-weight="600" fill="#d97706" text-anchor="start">+92.05</text>
<text x="676.0" y="390.0" font-family="Arial, sans-serif" font-size="12" font-weight="400" fill="#1e293b" text-anchor="start">α = 1.00</text>
<text x="810.0" y="390.0" font-family="Arial, sans-serif" font-size="12" font-weight="600" fill="#d97706" text-anchor="start">+182.38</text>
<text x="70.0" y="542.0" font-family="Arial, sans-serif" font-size="11" font-weight="400" fill="#64748b" text-anchor="start">Wider price band shown than the actual alpha shock to make curve-shape differences visible.</text>
</svg>