<svg xmlns="http://www.w3.org/2000/svg" width="980" height="680" viewBox="0 0 980 680" role="img">
<rect x="0.0" y="0.0" width="980.0" height="680.0" fill="#f8f7f4" />
<rect x="40.0" y="40.0" width="900.0" height="600.0" fill="#ffffff" stroke="#e2e8f0" stroke-width="1" rx="18" ry="18" />
<text x="70.0" y="85.0" font-family="Arial, sans-serif" font-size="26" font-weight="700" fill="#1e293b" text-anchor="start">Solver-Implied Childcare Curves</text>
<text x="70.0" y="110.0" font-family="Arial, sans-serif" font-size="15" font-weight="400" fill="#64748b" text-anchor="start">Elasticity-implied local supply and demand curves anchored at the canonical baseline</text>
<line x1="120.0" y1="500.0" x2="880.0" y2="500.0" stroke="#1e293b" stroke-width="2" />
<line x1="120.0" y1="120.0" x2="120.0" y2="500.0" stroke="#1e293b" stroke-width="2" />
<text x="52.0" y="310.0" font-family="Arial, sans-serif" font-size="16" font-weight="400" fill="#1e293b" text-anchor="middle">Price</text>
<line x1="120.0" y1="120.0" x2="120.0" y2="500.0" stroke="#e2e8f0" stroke-width="1" />
<text x="120.0" y="518.0" font-family="Arial, sans-serif" font-size="11" font-weight="400" fill="#64748b" text-anchor="middle">1.62M</text>
<line x1="310.0" y1="120.0" x2="310.0" y2="500.0" stroke="#e2e8f0" stroke-width="1" />
<text x="310.0" y="518.0" font-family="Arial, sans-serif" font-size="11" font-weight="400" fill="#64748b" text-anchor="middle">2.40M</text>
<line x1="500.0" y1="120.0" x2="500.0" y2="500.0" stroke="#e2e8f0" stroke-width="1" />
<text x="500.0" y="518.0" font-family="Arial, sans-serif" font-size="11" font-weight="400" fill="#64748b" text-anchor="middle">3.18M</text>
<line x1="690.0" y1="120.0" x2="690.0" y2="500.0" stroke="#e2e8f0" stroke-width="1" />
<text x="690.0" y="518.0" font-family="Arial, sans-serif" font-size="11" font-weight="400" fill="#64748b" text-anchor="middle">3.97M</text>
<line x1="880.0" y1="120.0" x2="880.0" y2="500.0" stroke="#e2e8f0" stroke-width="1" />
<text x="880.0" y="518.0" font-family="Arial, sans-serif" font-size="11" font-weight="400" fill="#64748b" text-anchor="middle">4.75M</text>
<line x1="120.0" y1="500.0" x2="880.0" y2="500.0" stroke="#e2e8f0" stroke-width="1" />
<text x="108.0" y="504.0" font-family="Arial, sans-serif" font-size="11" font-weight="400" fill="#64748b" text-anchor="end">7,410</text>
<line x1="120.0" y1="405.0" x2="880.0" y2="405.0" stroke="#e2e8f0" stroke-width="1" />
<text x="108.0" y="409.0" font-family="Arial, sans-serif" font-size="11" font-weight="400" fill="#64748b" text-anchor="end">7,954</text>
<line x1="120.0" y1="310.0" x2="880.0" y2="310.0" stroke="#e2e8f0" stroke-width="1" />
<text x="108.0" y="314.0" font-family="Arial, sans-serif" font-size="11" font-weight="400" fill="#64748b" text-anchor="end">8,498</text>
<line x1="120.0" y1="215.0" x2="880.0" y2="215.0" stroke="#e2e8f0" stroke-width="1" />
<text x="108.0" y="219.0" font-family="Arial, sans-serif" font-size="11" font-weight="400" fill="#64748b" text-anchor="end">9,042</text>
<line x1="120.0" y1="120.0" x2="880.0" y2="120.0" stroke="#e2e8f0" stroke-width="1" />
<text x="108.0" y="124.0" font-family="Arial, sans-serif" font-size="11" font-weight="400" fill="#64748b" text-anchor="end">9,586</text>
<text x="500.0" y="538.0" font-family="Arial, sans-serif" font-size="14" font-weight="400" fill="#64748b" text-anchor="middle">Quantity of paid childcare</text>
<polyline points="172.4,473.8 180.1,468.2 187.9,462.7 195.8,457.1 203.8,451.6 211.9,446.0 220.1,440.5 228.4,434.9 236.8,429.4 245.4,423.8 254.0,418.3 262.7,412.7 271.6,407.2 280.5,401.6 289.6,396.1 298.8,390.5 308.1,385.0 317.5,379.4 327.0,373.9 336.6,368.3 346.4,362.7 356.2,357.2 366.2,351.6 376.3,346.1 386.5,340.5 396.9,335.0 407.3,329.4 417.9,323.9 428.6,318.3 439.5,312.8 450.4,307.2 461.5,301.7 472.7,296.1 484.1,290.6 495.6,285.0 507.2,279.5 518.9,273.9 530.8,268.4 542.8,262.8 554.9,257.3 567.2,251.7 579.6,246.1 592.2,240.6 604.8,235.0 617.7,229.5 630.6,223.9 643.8,218.4 657.0,212.8 670.4,207.3 683.9,201.7 697.6,196.2 711.5,190.6 725.5,185.1 739.6,179.5 753.9,174.0 768.3,168.4 782.9,162.9 797.6,157.3 812.5,151.8 827.6,146.2" fill="none" stroke="#0d9488" stroke-width="4" stroke-linecap="round" stroke-linejoin="round" />
<polyline points="354.1,473.8 354.1,468.2 354.0,462.7 354.0,457.1 353.9,451.6 353.9,446.0 353.8,440.5 353.8,434.9 353.7,429.4 353.6,423.8 353.6,418.3 353.5,412.7 353.5,407.2 353.4,401.6 353.4,396.1 353.3,390.5 353.3,385.0 353.2,379.4 353.2,373.9 353.1,368.3 353.1,362.7 353.0,357.2 353.0,351.6 352.9,346.1 352.9,340.5 352.8,335.0 352.8,329.4 352.7,323.9 352.7,318.3 352.6,312.8 352.6,307.2 352.5,301.7 352.5,296.1 352.4,290.6 352.4,285.0 352.3,279.5 352.3,273.9 352.2,268.4 352.2,262.8 352.2,257.3 352.1,251.7 352.1,246.1 352.0,240.6 352.0,235.0 351.9,229.5 351.9,223.9 351.8,218.4 351.8,212.8 351.7,207.3 351.7,201.7 351.6,196.2 351.6,190.6 351.6,185.1 351.5,179.5 351.5,174.0 351.4,168.4 351.4,162.9 351.3,157.3 351.3,151.8 351.3,146.2" fill="none" stroke="#3b82f6" stroke-width="4" stroke-linecap="round" stroke-linejoin="round" />
<circle cx="353.0" cy="359.0" r="6.0" fill="#ffffff" stroke="#1e293b" stroke-width="2" />
<line x1="353.0" y1="359.0" x2="353.0" y2="500.0" stroke="#94a3b8" stroke-width="1.5" stroke-dasharray="6 6" />
<line x1="120.0" y1="359.0" x2="353.0" y2="359.0" stroke="#94a3b8" stroke-width="1.5" stroke-dasharray="6 6" />
<rect x="366.1" y="452.8" width="62.8" height="23.0" fill="#ffffff" stroke="#3b82f6" stroke-width="1" rx="11.5" ry="11.5" />
<text x="374.1" y="469.8" font-family="Arial, sans-serif" font-size="13" font-weight="600" fill="#3b82f6" text-anchor="start">Demand</text>
<rect x="829.6" y="125.2" width="62.8" height="23.0" fill="#ffffff" stroke="#0d9488" stroke-width="1" rx="11.5" ry="11.5" />
<text x="837.6" y="142.2" font-family="Arial, sans-serif" font-size="13" font-weight="600" fill="#0d9488" text-anchor="start">Supply</text>
<rect x="268.6" y="324.0" width="78.4" height="23.0" fill="#ffffff" stroke="#e2e8f0" stroke-width="1" rx="11.5" ry="11.5" />
<text x="339.0" y="341.0" font-family="Arial, sans-serif" font-size="13" font-weight="600" fill="#1e293b" text-anchor="end">Baseline</text>
<text x="120.0" y="558.0" font-family="Arial, sans-serif" font-size="13" font-weight="600" fill="#3b82f6" text-anchor="start">Demand elasticity = -0.021</text>
<text x="380.0" y="558.0" font-family="Arial, sans-serif" font-size="13" font-weight="600" fill="#0d9488" text-anchor="start">Supply elasticity = 4.078</text>
<text x="620.0" y="558.0" font-family="Arial, sans-serif" font-size="13" font-weight="400" fill="#64748b" text-anchor="start">Baseline = 8,218</text>
<text x="120.0" y="576.0" font-family="Arial, sans-serif" font-size="13" font-weight="600" fill="#d97706" text-anchor="start">α=0.50: 8,737 (+519.3)</text>
<text x="380.0" y="576.0" font-family="Arial, sans-serif" font-size="13" font-weight="600" fill="#0d9488" text-anchor="start">α=1.00: 9,125 (+907.4)</text>
<text x="70.0" y="598.0" font-family="Arial, sans-serif" font-size="11" font-weight="400" fill="#64748b" text-anchor="start">Solver-implied from canonical elasticities, not empirical curves.</text>
</svg>