<svg xmlns="http://www.w3.org/2000/svg" width="980" height="680" viewBox="0 0 980 680" role="img">
<rect x="0.0" y="0.0" width="980.0" height="680.0" fill="#f8f7f4" />
<rect x="40.0" y="40.0" width="900.0" height="600.0" fill="#ffffff" stroke="#e2e8f0" stroke-width="1" rx="18" ry="18" />
<text x="70.0" y="85.0" font-family="Arial, sans-serif" font-size="26" font-weight="700" fill="#1e293b" text-anchor="start">Local IV-Informed Marketization Demo</text>
<text x="70.0" y="110.0" font-family="Arial, sans-serif" font-size="15" font-weight="400" fill="#64748b" text-anchor="start">Treated-state median baseline using canonical demand elasticity and local IV supply elasticity</text>
<line x1="120.0" y1="500.0" x2="880.0" y2="500.0" stroke="#1e293b" stroke-width="2" />
<line x1="120.0" y1="120.0" x2="120.0" y2="500.0" stroke="#1e293b" stroke-width="2" />
<text x="52.0" y="310.0" font-family="Arial, sans-serif" font-size="16" font-weight="400" fill="#1e293b" text-anchor="middle">Price</text>
<line x1="120.0" y1="120.0" x2="120.0" y2="500.0" stroke="#e2e8f0" stroke-width="1" />
<text x="120.0" y="518.0" font-family="Arial, sans-serif" font-size="11" font-weight="400" fill="#64748b" text-anchor="middle">0.00M</text>
<line x1="310.0" y1="120.0" x2="310.0" y2="500.0" stroke="#e2e8f0" stroke-width="1" />
<text x="310.0" y="518.0" font-family="Arial, sans-serif" font-size="11" font-weight="400" fill="#64748b" text-anchor="middle">9.78M</text>
<line x1="500.0" y1="120.0" x2="500.0" y2="500.0" stroke="#e2e8f0" stroke-width="1" />
<text x="500.0" y="518.0" font-family="Arial, sans-serif" font-size="11" font-weight="400" fill="#64748b" text-anchor="middle">19.56M</text>
<line x1="690.0" y1="120.0" x2="690.0" y2="500.0" stroke="#e2e8f0" stroke-width="1" />
<text x="690.0" y="518.0" font-family="Arial, sans-serif" font-size="11" font-weight="400" fill="#64748b" text-anchor="middle">29.34M</text>
<line x1="880.0" y1="120.0" x2="880.0" y2="500.0" stroke="#e2e8f0" stroke-width="1" />
<text x="880.0" y="518.0" font-family="Arial, sans-serif" font-size="11" font-weight="400" fill="#64748b" text-anchor="middle">39.11M</text>
<line x1="120.0" y1="500.0" x2="880.0" y2="500.0" stroke="#e2e8f0" stroke-width="1" />
<text x="108.0" y="504.0" font-family="Arial, sans-serif" font-size="11" font-weight="400" fill="#64748b" text-anchor="end">5,571</text>
<line x1="120.0" y1="405.0" x2="880.0" y2="405.0" stroke="#e2e8f0" stroke-width="1" />
<text x="108.0" y="409.0" font-family="Arial, sans-serif" font-size="11" font-weight="400" fill="#64748b" text-anchor="end">5,868</text>
<line x1="120.0" y1="310.0" x2="880.0" y2="310.0" stroke="#e2e8f0" stroke-width="1" />
<text x="108.0" y="314.0" font-family="Arial, sans-serif" font-size="11" font-weight="400" fill="#64748b" text-anchor="end">6,164</text>
<line x1="120.0" y1="215.0" x2="880.0" y2="215.0" stroke="#e2e8f0" stroke-width="1" />
<text x="108.0" y="219.0" font-family="Arial, sans-serif" font-size="11" font-weight="400" fill="#64748b" text-anchor="end">6,460</text>
<line x1="120.0" y1="120.0" x2="880.0" y2="120.0" stroke="#e2e8f0" stroke-width="1" />
<text x="108.0" y="124.0" font-family="Arial, sans-serif" font-size="11" font-weight="400" fill="#64748b" text-anchor="end">6,757</text>
<text x="500.0" y="538.0" font-family="Arial, sans-serif" font-size="14" font-weight="400" fill="#64748b" text-anchor="middle">Quantity of paid childcare</text>
<polyline points="136.8,473.8 138.0,468.2 139.3,462.7 140.7,457.1 142.1,451.6 143.7,446.0 145.3,440.5 147.1,434.9 149.0,429.4 151.0,423.8 153.2,418.3 155.4,412.7 157.9,407.2 160.5,401.6 163.2,396.1 166.2,390.5 169.3,385.0 172.7,379.4 176.2,373.9 180.0,368.3 184.1,362.7 188.3,357.2 192.9,351.6 197.8,346.1 202.9,340.5 208.4,335.0 214.2,329.4 220.4,323.9 227.0,318.3 234.0,312.8 241.5,307.2 249.4,301.7 257.7,296.1 266.6,290.6 276.1,285.0 286.1,279.5 296.8,273.9 308.1,268.4 320.1,262.8 332.8,257.3 346.2,251.7 360.5,246.1 375.7,240.6 391.8,235.0 408.8,229.5 426.8,223.9 446.0,218.4 466.2,212.8 487.7,207.3 510.4,201.7 534.4,196.2 559.9,190.6 586.9,185.1 615.4,179.5 645.6,174.0 677.6,168.4 711.4,162.9 747.1,157.3 785.0,151.8 824.9,146.2" fill="none" stroke="#0d9488" stroke-width="4" stroke-linecap="round" stroke-linejoin="round" />
<polyline points="230.9,473.8 230.9,468.2 230.8,462.7 230.8,457.1 230.7,451.6 230.7,446.0 230.6,440.5 230.6,434.9 230.6,429.4 230.5,423.8 230.5,418.3 230.4,412.7 230.4,407.2 230.3,401.6 230.3,396.1 230.2,390.5 230.2,385.0 230.1,379.4 230.1,373.9 230.0,368.3 230.0,362.7 229.9,357.2 229.9,351.6 229.9,346.1 229.8,340.5 229.8,335.0 229.7,329.4 229.7,323.9 229.6,318.3 229.6,312.8 229.5,307.2 229.5,301.7 229.5,296.1 229.4,290.6 229.4,285.0 229.3,279.5 229.3,273.9 229.2,268.4 229.2,262.8 229.2,257.3 229.1,251.7 229.1,246.1 229.0,240.6 229.0,235.0 228.9,229.5 228.9,223.9 228.9,218.4 228.8,212.8 228.8,207.3 228.7,201.7 228.7,196.2 228.6,190.6 228.6,185.1 228.6,179.5 228.5,174.0 228.5,168.4 228.4,162.9 228.4,157.3 228.4,151.8 228.3,146.2" fill="none" stroke="#3b82f6" stroke-width="4" stroke-linecap="round" stroke-linejoin="round" />
<circle cx="229.6" cy="316.2" r="6.0" fill="#ffffff" stroke="#1e293b" stroke-width="2" />
<line x1="229.6" y1="316.2" x2="229.6" y2="500.0" stroke="#94a3b8" stroke-width="1.5" stroke-dasharray="6 6" />
<line x1="120.0" y1="316.2" x2="229.6" y2="316.2" stroke="#94a3b8" stroke-width="1.5" stroke-dasharray="6 6" />
<rect x="242.9" y="452.8" width="62.8" height="23.0" fill="#ffffff" stroke="#3b82f6" stroke-width="1" rx="11.5" ry="11.5" />
<text x="250.9" y="469.8" font-family="Arial, sans-serif" font-size="13" font-weight="600" fill="#3b82f6" text-anchor="start">Demand</text>
<rect x="826.9" y="125.2" width="62.8" height="23.0" fill="#ffffff" stroke="#0d9488" stroke-width="1" rx="11.5" ry="11.5" />
<text x="834.9" y="142.2" font-family="Arial, sans-serif" font-size="13" font-weight="600" fill="#0d9488" text-anchor="start">Supply</text>
<rect x="145.2" y="281.2" width="78.4" height="23.0" fill="#ffffff" stroke="#e2e8f0" stroke-width="1" rx="11.5" ry="11.5" />
<text x="215.6" y="298.2" font-family="Arial, sans-serif" font-size="13" font-weight="600" fill="#1e293b" text-anchor="end">Baseline</text>
<rect x="585.0" y="330.0" width="290.0" height="132.0" fill="#f8f7f4" stroke="#e2e8f0" stroke-width="1" rx="14" ry="14" />
<text x="601.0" y="354.0" font-family="Arial, sans-serif" font-size="14" font-weight="700" fill="#1e293b" text-anchor="start">Alpha examples</text>
<text x="601.0" y="382.0" font-family="Arial, sans-serif" font-size="13" font-weight="600" fill="#0d9488" text-anchor="start">α=0.50: 6,163 (+18.6)</text>
<text x="601.0" y="406.0" font-family="Arial, sans-serif" font-size="13" font-weight="600" fill="#d97706" text-anchor="start">α=1.00: 6,181 (+36.0)</text>
<text x="601.0" y="438.0" font-family="Arial, sans-serif" font-size="12" font-weight="400" fill="#64748b" text-anchor="start">Treated states: 22, 30, 51</text>
<text x="601.0" y="456.0" font-family="Arial, sans-serif" font-size="12" font-weight="400" fill="#64748b" text-anchor="start">Secondary local-IV demo only</text>
<text x="120.0" y="558.0" font-family="Arial, sans-serif" font-size="13" font-weight="600" fill="#3b82f6" text-anchor="start">Demand elasticity = -0.143</text>
<text x="380.0" y="558.0" font-family="Arial, sans-serif" font-size="13" font-weight="600" fill="#0d9488" text-anchor="start">Local IV supply elasticity = 22.477</text>
<text x="690.0" y="558.0" font-family="Arial, sans-serif" font-size="13" font-weight="400" fill="#64748b" text-anchor="start">Baseline = 6,145</text>
<text x="70.0" y="598.0" font-family="Arial, sans-serif" font-size="11" font-weight="400" fill="#64748b" text-anchor="start">Local treated-state demo using IV-informed supply and canonical demand; not a canonical or national structural curve.</text>
</svg>