<svg xmlns="http://www.w3.org/2000/svg" width="980" height="680" viewBox="0 0 980 680" role="img">
<rect x="0.0" y="0.0" width="980.0" height="680.0" fill="#f8f7f4" />
<rect x="40.0" y="40.0" width="900.0" height="600.0" fill="#ffffff" stroke="#e2e8f0" stroke-width="1" rx="18" ry="18" />
<text x="70.0" y="85.0" font-family="Arial, sans-serif" font-size="26" font-weight="700" fill="#1e293b" text-anchor="start">Solver-Implied Childcare Curves</text>
<text x="70.0" y="110.0" font-family="Arial, sans-serif" font-size="15" font-weight="400" fill="#64748b" text-anchor="start">Elasticity-implied local supply and demand curves anchored at the canonical baseline</text>
<line x1="120.0" y1="500.0" x2="880.0" y2="500.0" stroke="#1e293b" stroke-width="2" />
<line x1="120.0" y1="120.0" x2="120.0" y2="500.0" stroke="#1e293b" stroke-width="2" />
<text x="52.0" y="310.0" font-family="Arial, sans-serif" font-size="16" font-weight="400" fill="#1e293b" text-anchor="middle">Price</text>
<line x1="120.0" y1="120.0" x2="120.0" y2="500.0" stroke="#e2e8f0" stroke-width="1" />
<text x="120.0" y="518.0" font-family="Arial, sans-serif" font-size="11" font-weight="400" fill="#64748b" text-anchor="middle">3.26M</text>
<line x1="310.0" y1="120.0" x2="310.0" y2="500.0" stroke="#e2e8f0" stroke-width="1" />
<text x="310.0" y="518.0" font-family="Arial, sans-serif" font-size="11" font-weight="400" fill="#64748b" text-anchor="middle">4.41M</text>
<line x1="500.0" y1="120.0" x2="500.0" y2="500.0" stroke="#e2e8f0" stroke-width="1" />
<text x="500.0" y="518.0" font-family="Arial, sans-serif" font-size="11" font-weight="400" fill="#64748b" text-anchor="middle">5.56M</text>
<line x1="690.0" y1="120.0" x2="690.0" y2="500.0" stroke="#e2e8f0" stroke-width="1" />
<text x="690.0" y="518.0" font-family="Arial, sans-serif" font-size="11" font-weight="400" fill="#64748b" text-anchor="middle">6.71M</text>
<line x1="880.0" y1="120.0" x2="880.0" y2="500.0" stroke="#e2e8f0" stroke-width="1" />
<text x="880.0" y="518.0" font-family="Arial, sans-serif" font-size="11" font-weight="400" fill="#64748b" text-anchor="middle">7.86M</text>
<line x1="120.0" y1="500.0" x2="880.0" y2="500.0" stroke="#e2e8f0" stroke-width="1" />
<text x="108.0" y="504.0" font-family="Arial, sans-serif" font-size="11" font-weight="400" fill="#64748b" text-anchor="end">7,443</text>
<line x1="120.0" y1="405.0" x2="880.0" y2="405.0" stroke="#e2e8f0" stroke-width="1" />
<text x="108.0" y="409.0" font-family="Arial, sans-serif" font-size="11" font-weight="400" fill="#64748b" text-anchor="end">7,889</text>
<line x1="120.0" y1="310.0" x2="880.0" y2="310.0" stroke="#e2e8f0" stroke-width="1" />
<text x="108.0" y="314.0" font-family="Arial, sans-serif" font-size="11" font-weight="400" fill="#64748b" text-anchor="end">8,334</text>
<line x1="120.0" y1="215.0" x2="880.0" y2="215.0" stroke="#e2e8f0" stroke-width="1" />
<text x="108.0" y="219.0" font-family="Arial, sans-serif" font-size="11" font-weight="400" fill="#64748b" text-anchor="end">8,780</text>
<line x1="120.0" y1="120.0" x2="880.0" y2="120.0" stroke="#e2e8f0" stroke-width="1" />
<text x="108.0" y="124.0" font-family="Arial, sans-serif" font-size="11" font-weight="400" fill="#64748b" text-anchor="end">9,225</text>
<text x="500.0" y="538.0" font-family="Arial, sans-serif" font-size="14" font-weight="400" fill="#64748b" text-anchor="middle">Quantity of paid childcare</text>
<polyline points="172.4,473.8 180.7,468.2 189.0,462.7 197.4,457.1 205.9,451.6 214.5,446.0 223.2,440.5 232.0,434.9 240.9,429.4 249.8,423.8 258.9,418.3 268.0,412.7 277.3,407.2 286.6,401.6 296.0,396.1 305.5,390.5 315.1,385.0 324.9,379.4 334.7,373.9 344.6,368.3 354.6,362.7 364.6,357.2 374.8,351.6 385.1,346.1 395.5,340.5 406.0,335.0 416.6,329.4 427.3,323.9 438.1,318.3 449.0,312.8 460.0,307.2 471.1,301.7 482.4,296.1 493.7,290.6 505.1,285.0 516.7,279.5 528.3,273.9 540.1,268.4 551.9,262.8 563.9,257.3 576.0,251.7 588.2,246.1 600.5,240.6 612.9,235.0 625.5,229.5 638.1,223.9 650.9,218.4 663.7,212.8 676.7,207.3 689.9,201.7 703.1,196.2 716.4,190.6 729.9,185.1 743.5,179.5 757.2,174.0 771.0,168.4 785.0,162.9 799.1,157.3 813.3,151.8 827.6,146.2" fill="none" stroke="#0d9488" stroke-width="4" stroke-linecap="round" stroke-linejoin="round" />
<polyline points="418.8,473.8 418.4,468.2 418.0,462.7 417.6,457.1 417.2,451.6 416.8,446.0 416.4,440.5 416.0,434.9 415.6,429.4 415.2,423.8 414.8,418.3 414.4,412.7 414.0,407.2 413.6,401.6 413.2,396.1 412.8,390.5 412.4,385.0 412.0,379.4 411.6,373.9 411.3,368.3 410.9,362.7 410.5,357.2 410.1,351.6 409.7,346.1 409.4,340.5 409.0,335.0 408.6,329.4 408.2,323.9 407.9,318.3 407.5,312.8 407.1,307.2 406.7,301.7 406.4,296.1 406.0,290.6 405.6,285.0 405.3,279.5 404.9,273.9 404.6,268.4 404.2,262.8 403.8,257.3 403.5,251.7 403.1,246.1 402.8,240.6 402.4,235.0 402.1,229.5 401.7,223.9 401.4,218.4 401.0,212.8 400.7,207.3 400.3,201.7 400.0,196.2 399.6,190.6 399.3,185.1 398.9,179.5 398.6,174.0 398.3,168.4 397.9,162.9 397.6,157.3 397.3,151.8 396.9,146.2" fill="none" stroke="#3b82f6" stroke-width="4" stroke-linecap="round" stroke-linejoin="round" />
<circle cx="408.9" cy="333.5" r="6.0" fill="#ffffff" stroke="#1e293b" stroke-width="2" />
<line x1="408.9" y1="333.5" x2="408.9" y2="500.0" stroke="#94a3b8" stroke-width="1.5" stroke-dasharray="6 6" />
<line x1="120.0" y1="333.5" x2="408.9" y2="333.5" stroke="#94a3b8" stroke-width="1.5" stroke-dasharray="6 6" />
<rect x="430.8" y="452.8" width="62.8" height="23.0" fill="#ffffff" stroke="#3b82f6" stroke-width="1" rx="11.5" ry="11.5" />
<text x="438.8" y="469.8" font-family="Arial, sans-serif" font-size="13" font-weight="600" fill="#3b82f6" text-anchor="start">Demand</text>
<rect x="829.6" y="125.2" width="62.8" height="23.0" fill="#ffffff" stroke="#0d9488" stroke-width="1" rx="11.5" ry="11.5" />
<text x="837.6" y="142.2" font-family="Arial, sans-serif" font-size="13" font-weight="600" fill="#0d9488" text-anchor="start">Supply</text>
<rect x="324.5" y="298.5" width="78.4" height="23.0" fill="#ffffff" stroke="#e2e8f0" stroke-width="1" rx="11.5" ry="11.5" />
<text x="394.9" y="315.5" font-family="Arial, sans-serif" font-size="13" font-weight="600" fill="#1e293b" text-anchor="end">Baseline</text>
<text x="120.0" y="558.0" font-family="Arial, sans-serif" font-size="13" font-weight="600" fill="#3b82f6" text-anchor="start">Demand elasticity = -0.143</text>
<text x="380.0" y="558.0" font-family="Arial, sans-serif" font-size="13" font-weight="600" fill="#0d9488" text-anchor="start">Supply elasticity = 4.035</text>
<text x="620.0" y="558.0" font-family="Arial, sans-serif" font-size="13" font-weight="400" fill="#64748b" text-anchor="start">Baseline = 8,224</text>
<text x="120.0" y="576.0" font-family="Arial, sans-serif" font-size="13" font-weight="600" fill="#d97706" text-anchor="start">α=0.50: 8,428 (+203.9)</text>
<text x="380.0" y="576.0" font-family="Arial, sans-serif" font-size="13" font-weight="600" fill="#0d9488" text-anchor="start">α=1.00: 8,618 (+394.4)</text>
<text x="70.0" y="598.0" font-family="Arial, sans-serif" font-size="11" font-weight="400" fill="#64748b" text-anchor="start">Solver-implied from canonical elasticities, not empirical curves.</text>
</svg>