<svg xmlns="http://www.w3.org/2000/svg" width="980" height="300" viewBox="0 0 980 300" role="img">
<rect x="0.0" y="0.0" width="980.0" height="300.0" fill="#f8f7f4" />
<rect x="40.0" y="40.0" width="900.0" height="220.0" fill="#ffffff" stroke="#e2e8f0" stroke-width="1" rx="18" ry="18" />
<text x="70.0" y="85.0" font-family="Arial, sans-serif" font-size="26" font-weight="700" fill="#1e293b" text-anchor="start">Observed Price Support Window</text>
<text x="70.0" y="110.0" font-family="Arial, sans-serif" font-size="15" font-weight="400" fill="#64748b" text-anchor="start">All canonical scenarios stay within NDCP observed price support</text>
<rect x="110.0" y="152.0" width="790.0" height="36.0" fill="#0d9488" rx="10" ry="10" />
<rect x="448.6" y="130.0" width="451.4" height="18.0" fill="#3b82f6" rx="8" ry="8" />
<text x="674.3" y="143.0" font-family="Arial, sans-serif" font-size="13" font-weight="700" fill="#ffffff" text-anchor="middle">Headline sample 2014-2022</text>
<text x="505.0" y="175.0" font-family="Arial, sans-serif" font-size="14" font-weight="700" fill="#ffffff" text-anchor="middle">Observed NDCP support</text>
<text x="70.0" y="240.0" font-family="Arial, sans-serif" font-size="14" font-weight="400" fill="#0d9488" text-anchor="start">Canonical scenario rows: 556</text>
<line x1="110.0" y1="198.0" x2="110.0" y2="208.0" stroke="#1e293b" stroke-width="1" />
<text x="110.0" y="225.0" font-family="Arial, sans-serif" font-size="11" font-weight="400" fill="#64748b" text-anchor="middle">2008</text>
<line x1="166.4" y1="198.0" x2="166.4" y2="208.0" stroke="#1e293b" stroke-width="1" />
<text x="166.4" y="225.0" font-family="Arial, sans-serif" font-size="11" font-weight="400" fill="#64748b" text-anchor="middle">2009</text>
<line x1="222.9" y1="198.0" x2="222.9" y2="208.0" stroke="#1e293b" stroke-width="1" />
<text x="222.9" y="225.0" font-family="Arial, sans-serif" font-size="11" font-weight="400" fill="#64748b" text-anchor="middle">2010</text>
<line x1="279.3" y1="198.0" x2="279.3" y2="208.0" stroke="#1e293b" stroke-width="1" />
<text x="279.3" y="225.0" font-family="Arial, sans-serif" font-size="11" font-weight="400" fill="#64748b" text-anchor="middle">2011</text>
<line x1="335.7" y1="198.0" x2="335.7" y2="208.0" stroke="#1e293b" stroke-width="1" />
<text x="335.7" y="225.0" font-family="Arial, sans-serif" font-size="11" font-weight="400" fill="#64748b" text-anchor="middle">2012</text>
<line x1="392.1" y1="198.0" x2="392.1" y2="208.0" stroke="#1e293b" stroke-width="1" />
<text x="392.1" y="225.0" font-family="Arial, sans-serif" font-size="11" font-weight="400" fill="#64748b" text-anchor="middle">2013</text>
<line x1="448.6" y1="198.0" x2="448.6" y2="208.0" stroke="#1e293b" stroke-width="1" />
<text x="448.6" y="225.0" font-family="Arial, sans-serif" font-size="11" font-weight="400" fill="#64748b" text-anchor="middle">2014</text>
<line x1="505.0" y1="198.0" x2="505.0" y2="208.0" stroke="#1e293b" stroke-width="1" />
<text x="505.0" y="225.0" font-family="Arial, sans-serif" font-size="11" font-weight="400" fill="#64748b" text-anchor="middle">2015</text>
<line x1="561.4" y1="198.0" x2="561.4" y2="208.0" stroke="#1e293b" stroke-width="1" />
<text x="561.4" y="225.0" font-family="Arial, sans-serif" font-size="11" font-weight="400" fill="#64748b" text-anchor="middle">2016</text>
<line x1="617.9" y1="198.0" x2="617.9" y2="208.0" stroke="#1e293b" stroke-width="1" />
<text x="617.9" y="225.0" font-family="Arial, sans-serif" font-size="11" font-weight="400" fill="#64748b" text-anchor="middle">2017</text>
<line x1="674.3" y1="198.0" x2="674.3" y2="208.0" stroke="#1e293b" stroke-width="1" />
<text x="674.3" y="225.0" font-family="Arial, sans-serif" font-size="11" font-weight="400" fill="#64748b" text-anchor="middle">2018</text>
<line x1="730.7" y1="198.0" x2="730.7" y2="208.0" stroke="#1e293b" stroke-width="1" />
<text x="730.7" y="225.0" font-family="Arial, sans-serif" font-size="11" font-weight="400" fill="#64748b" text-anchor="middle">2019</text>
<line x1="787.1" y1="198.0" x2="787.1" y2="208.0" stroke="#1e293b" stroke-width="1" />
<text x="787.1" y="225.0" font-family="Arial, sans-serif" font-size="11" font-weight="400" fill="#64748b" text-anchor="middle">2020</text>
<line x1="843.6" y1="198.0" x2="843.6" y2="208.0" stroke="#1e293b" stroke-width="1" />
<text x="843.6" y="225.0" font-family="Arial, sans-serif" font-size="11" font-weight="400" fill="#64748b" text-anchor="middle">2021</text>
<line x1="900.0" y1="198.0" x2="900.0" y2="208.0" stroke="#1e293b" stroke-width="1" />
<text x="900.0" y="225.0" font-family="Arial, sans-serif" font-size="11" font-weight="400" fill="#64748b" text-anchor="middle">2022</text>
</svg>